<?xml version="1.0" encoding="UTF-8"?>
<svg xmlns="http://www.w3.org/2000/svg" xmlns:xlink="http://www.w3.org/1999/xlink" viewBox="0 0 64 64" width="64px" height="64px">
<g id="surface11958473">
<path style=" stroke:none;fill-rule:nonzero;fill:rgb(64.313728%,64.313728%,64.313728%);fill-opacity:1;" d="M 16.960938 8 L 8 48 L 18.820312 48 L 16.992188 56 L 31.5625 56 L 34.5625 44 L 39.5 44 C 43.191406 44 46.578125 43.492188 49.421875 42.023438 C 52.265625 40.554688 54.472656 38.007812 55.429688 34.53125 L 55.460938 34.390625 C 56.269531 30.355469 56.085938 26.816406 54.390625 24.070312 C 53.074219 21.941406 50.875 20.558594 48.132812 19.90625 C 48.347656 16.328125 47.320312 13.34375 45.375 11.351562 C 43.078125 9 39.863281 8 36.757812 8 Z M 20.164062 12 L 36.757812 12 C 38.992188 12 41.152344 12.75 42.515625 14.148438 C 43.875 15.539062 44.671875 17.601562 44.03125 21.085938 C 43.363281 23.929688 42.265625 25.460938 40.578125 26.476562 C 38.878906 27.5 36.34375 28 32.875 28 L 23.421875 28 L 23.046875 29.554688 L 22.960938 29.9375 L 19.601562 44 L 13 44 Z M 26.25 16 L 24 24 L 34.25 24 C 36.734375 24 39.75 22.5 39.75 20 C 39.75 17.515625 37.734375 16 35.25 16 Z M 47.367188 23.789062 C 49.191406 24.21875 50.28125 25.042969 50.984375 26.179688 C 51.902344 27.667969 52.191406 30.121094 51.53125 33.515625 C 50.832031 35.992188 49.5625 37.457031 47.585938 38.476562 C 45.589844 39.507812 42.808594 40 39.5 40 L 31.4375 40 L 28.4375 52 L 22.015625 52 L 26.59375 32 L 32.875 32 C 36.707031 32 39.980469 31.5 42.640625 29.898438 C 44.820312 28.585938 46.398438 26.484375 47.367188 23.789062 Z M 47.367188 23.789062 "/>
</g>
</svg>
